<?xml version="1.0" encoding="UTF-8" standalone="no"?>
<!DOCTYPE svg PUBLIC "-//W3C//DTD SVG 1.0//EN"
 "http://www.w3.org/TR/2001/REC-SVG-20010904/DTD/svg10.dtd">
<!-- Generated by dot version 1.13 (v16) (Mon August 23, 2004)
     For user: (fabsn) Fabricio Nascimento   Title: untitled    Pages: 1 -->
<svg width="542pt" height="720pt"
 viewBox = "-1 -1 541 719"
 xmlns="http://www.w3.org/2000/svg">
<g id="graph0" class="graph" style="font-family:Times-Roman;font-size:14.00;">
<title>untitled</title>
<text text-anchor="middle" x="270" y="705">Algorithm</text>
<g id="node1" class="node"><title>1</title>
<ellipse cx="328" cy="94" rx="27" ry="18" style="fill:none;stroke:black;"/>
<text text-anchor="middle" x="328" y="99">non</text>
</g>
<g id="node10" class="node"><title>un</title>
<ellipse cx="280" cy="166" rx="69" ry="18" style="fill:none;stroke:black;"/>
<text text-anchor="middle" x="280" y="171">utilisateur nommée?</text>
</g>
<g id="edge6" class="edge"><title>1-&gt;un</title>
<path style="fill:none;stroke:black;" d="M317,111C312,119 305,130 298,140"/>
<polygon style="fill:black;stroke:black;" points="301,142 292,148 295,138 301,142"/>
</g>
<g id="node2" class="node"><title>3</title>
<ellipse cx="190" cy="238" rx="27" ry="18" style="fill:none;stroke:black;"/>
<text text-anchor="middle" x="190" y="243">non</text>
</g>
<g id="node11" class="node"><title>gp1</title>
<ellipse cx="131" cy="310" rx="103" ry="18" style="fill:none;stroke:black;"/>
<text text-anchor="middle" x="131" y="315">pertence au groupe proprietaire?</text>
</g>
<g id="edge12" class="edge"><title>3-&gt;gp1</title>
<path style="fill:none;stroke:black;" d="M177,254C170,263 161,274 153,284"/>
<polygon style="fill:black;stroke:black;" points="155,287 146,292 150,282 155,287"/>
</g>
<g id="node3" class="node"><title>5</title>
<ellipse cx="97" cy="382" rx="27" ry="18" style="fill:none;stroke:black;"/>
<text text-anchor="middle" x="97" y="387">non</text>
</g>
<g id="node12" class="node"><title>gpn</title>
<ellipse cx="97" cy="454" rx="92" ry="18" style="fill:none;stroke:black;"/>
<text text-anchor="middle" x="97" y="459">pertence au groupe nommé?</text>
</g>
<g id="edge18" class="edge"><title>5-&gt;gpn</title>
<path style="fill:none;stroke:black;" d="M97,400C97,408 97,417 97,426"/>
<polygon style="fill:black;stroke:black;" points="101,426 97,436 94,426 101,426"/>
</g>
<g id="node4" class="node"><title>7</title>
<ellipse cx="97" cy="526" rx="27" ry="18" style="fill:none;stroke:black;"/>
<text text-anchor="middle" x="97" y="531">non</text>
</g>
<g id="node26" class="node"><title>denied</title>
<ellipse cx="97" cy="598" rx="31" ry="18" style="fill:none;stroke:black;"/>
<text text-anchor="middle" x="97" y="603">denied</text>
</g>
<g id="edge24" class="edge"><title>7-&gt;denied</title>
<path style="fill:none;stroke:black;" d="M97,544C97,552 97,561 97,570"/>
<polygon style="fill:black;stroke:black;" points="101,570 97,580 94,570 101,570"/>
</g>
<g id="node5" class="node"><title>0</title>
<ellipse cx="432" cy="166" rx="64" ry="18" style="fill:none;stroke:black;"/>
<text text-anchor="middle" x="432" y="171">(oui) match owner</text>
</g>
<g id="node13" class="node"><title>perm</title>
<ellipse cx="341" cy="598" rx="99" ry="18" style="fill:none;stroke:black;"/>
<text text-anchor="middle" x="341" y="603">est-ce qu&#39;il l&#39;entrée a les droits?</text>
</g>
<g id="edge26" class="edge"><title>0-&gt;perm</title>
<path style="fill:none;stroke:black;" d="M432,184C432,212 432,265 432,310 432,310 432,310 432,454 432,502 396,546 369,573"/>
<polygon style="fill:black;stroke:black;" points="372,575 362,580 367,570 372,575"/>
</g>
<g id="node6" class="node"><title>2</title>
<ellipse cx="328" cy="310" rx="75" ry="18" style="fill:none;stroke:black;"/>
<text text-anchor="middle" x="328" y="315">(oui) match user:name</text>
</g>
<g id="edge28" class="edge"><title>2-&gt;perm</title>
<path style="fill:none;stroke:black;" d="M330,328C334,353 339,398 342,436 344,483 343,537 342,570"/>
<polygon style="fill:black;stroke:black;" points="346,570 342,580 339,570 346,570"/>
</g>
<g id="node7" class="node"><title>4</title>
<ellipse cx="270" cy="454" rx="63" ry="18" style="fill:none;stroke:black;"/>
<text text-anchor="middle" x="270" y="459">(oui) match group</text>
</g>
<g id="edge30" class="edge"><title>4-&gt;perm</title>
<path style="fill:none;stroke:black;" d="M282,472C289,482 297,496 303,508 313,528 323,552 330,570"/>
<polygon style="fill:black;stroke:black;" points="334,569 334,580 327,572 334,569"/>
</g>
<g id="node8" class="node"><title>6</title>
<ellipse cx="218" cy="526" rx="75" ry="18" style="fill:none;stroke:black;"/>
<text text-anchor="middle" x="218" y="531">(oui) match user:name</text>
</g>
<g id="edge32" class="edge"><title>6-&gt;perm</title>
<path style="fill:none;stroke:black;" d="M247,543C263,552 284,565 302,575"/>
<polygon style="fill:black;stroke:black;" points="305,573 311,581 301,578 305,573"/>
</g>
<g id="node9" class="node"><title>p</title>
<ellipse cx="367" cy="22" rx="48" ry="18" style="fill:none;stroke:black;"/>
<text text-anchor="middle" x="367" y="27">proprietaire?</text>
</g>
<g id="edge4" class="edge"><title>p-&gt;1</title>
<path style="fill:none;stroke:black;" d="M357,40C353,48 347,59 342,68"/>
<polygon style="fill:black;stroke:black;" points="345,70 337,77 339,67 345,70"/>
</g>
<g id="edge2" class="edge"><title>p-&gt;0</title>
<path style="fill:none;stroke:black;" d="M375,40C387,65 406,110 420,139"/>
<polygon style="fill:black;stroke:black;" points="423,137 424,148 417,140 423,137"/>
</g>
<g id="edge10" class="edge"><title>un-&gt;3</title>
<path style="fill:none;stroke:black;" d="M258,183C246,194 229,207 215,218"/>
<polygon style="fill:black;stroke:black;" points="217,221 207,224 213,215 217,221"/>
</g>
<g id="edge8" class="edge"><title>un-&gt;2</title>
<path style="fill:none;stroke:black;" d="M286,184C294,209 309,253 319,282"/>
<polygon style="fill:black;stroke:black;" points="322,281 322,292 316,283 322,281"/>
</g>
<g id="edge16" class="edge"><title>gp1-&gt;5</title>
<path style="fill:none;stroke:black;" d="M122,328C118,336 114,346 109,355"/>
<polygon style="fill:black;stroke:black;" points="112,356 105,364 106,353 112,356"/>
</g>
<g id="edge14" class="edge"><title>gp1-&gt;4</title>
<path style="fill:none;stroke:black;" d="M148,328C173,354 218,400 246,429"/>
<polygon style="fill:black;stroke:black;" points="248,426 253,436 243,431 248,426"/>
</g>
<g id="edge22" class="edge"><title>gpn-&gt;7</title>
<path style="fill:none;stroke:black;" d="M97,472C97,480 97,489 97,498"/>
<polygon style="fill:black;stroke:black;" points="101,498 97,508 94,498 101,498"/>
</g>
<g id="edge20" class="edge"><title>gpn-&gt;6</title>
<path style="fill:none;stroke:black;" d="M126,471C142,481 163,494 181,504"/>
<polygon style="fill:black;stroke:black;" points="183,501 190,509 180,507 183,501"/>
</g>
<g id="node32" class="node"><title>(oui) l&#39;acess est autorisé</title>
<ellipse cx="244" cy="670" rx="79" ry="18" style="fill:none;stroke:black;"/>
<text text-anchor="middle" x="244" y="675">(oui) l&#39;acess est autorisé</text>
</g>
<g id="edge34" class="edge"><title>perm-&gt;(oui) l&#39;acess est autorisé</title>
<path style="fill:none;stroke:black;" d="M317,616C305,625 289,636 275,647"/>
<polygon style="fill:black;stroke:black;" points="277,650 267,653 273,644 277,650"/>
</g>
<g id="node34" class="node"><title>(non) l&#39;acess n&#39;est pas autorisé</title>
<ellipse cx="438" cy="670" rx="97" ry="18" style="fill:none;stroke:black;"/>
<text text-anchor="middle" x="438" y="675">(non) l&#39;acess n&#39;est pas autorisé</text>
</g>
<g id="edge36" class="edge"><title>perm-&gt;(non) l&#39;acess n&#39;est pas autorisé</title>
<path style="fill:none;stroke:black;" d="M365,616C377,625 392,636 406,646"/>
<polygon style="fill:black;stroke:black;" points="408,643 414,652 404,649 408,643"/>
</g>
</g>
</svg>
